<svg width="230" height="24" viewBox="0 0 230 24" fill="none" xmlns="http://www.w3.org/2000/svg">
<path d="M3.39996 21.1948H7.10902V2.80519H2.78179V6.54546H0V1.78814e-07H10.509V21.1948H14.2181V24H3.39996V21.1948Z" fill="#A4DE84"/>
<path d="M25.6542 21.1948H36.7814V13.0909H26.5816V10.2857H36.7814V2.80519H25.6542V0H40.1814V24H25.6542V21.1948Z" fill="#A4DE84"/>
<path d="M50.6903 21.1948H61.8175V13.0909H51.6176V10.2857H61.8175V2.80519H50.6903V0H65.2175V24H50.6903V21.1948Z" fill="#A4DE84"/>
<path d="M87.1626 2.80519H77.8901V8.72728H75.1082V0H90.2536V24H87.1626V2.80519Z" fill="#A4DE84"/>
<path d="M112.477 9.12109C111.977 9.12109 111.727 8.88281 111.727 8.40625C111.727 8.1875 111.84 7.79297 112.066 7.22266C112.293 6.64453 112.488 6.19531 112.652 5.875C113.027 5.125 113.41 4.60547 113.801 4.31641C114.426 3.85547 116.867 3.4375 121.125 3.0625C122.977 2.90625 124.324 2.82812 125.168 2.82812C126.012 2.82812 126.609 2.83984 126.961 2.86328C127.32 2.88672 127.691 2.92969 128.074 2.99219C128.457 3.04688 128.84 3.12109 129.223 3.21484C129.605 3.30078 129.969 3.41016 130.312 3.54297C131.055 3.83203 131.574 4.19141 131.871 4.62109C132.801 5.97266 133.266 7.07422 133.266 7.92578C133.266 8.87891 132.539 9.8125 131.086 10.7266C130.648 11.0078 130.18 11.2891 129.68 11.5703C127.859 12.5547 126.793 13.1367 126.48 13.3164C127.137 14.5898 128.422 15.9062 130.336 17.2656C130.562 17.4219 130.742 17.5391 130.875 17.6172C131.461 17.9609 132.152 17.9062 132.949 17.4531C133.168 17.3203 133.391 17.2539 133.617 17.2539C133.844 17.2539 134.043 17.3398 134.215 17.5117C134.387 17.6758 134.473 17.8594 134.473 18.0625C134.473 18.9922 133.852 19.9922 132.609 21.0625C131.688 21.8594 130.855 22.2578 130.113 22.2578C129.512 22.2578 128.203 21.375 126.188 19.6094C125.047 18.6094 124.121 17.7148 123.41 16.9258C122.699 16.1367 122.211 15.5508 121.945 15.168C121.68 14.7773 121.547 14.4414 121.547 14.1602C121.547 13.8789 121.613 13.6289 121.746 13.4102C121.887 13.1914 122.074 12.9805 122.309 12.7773C122.676 12.4648 123.199 12.1328 123.879 11.7812C124.559 11.4219 125.113 11.082 125.543 10.7617C125.973 10.4414 126.344 10.1094 126.656 9.76562C127.344 9.03906 127.688 8.38281 127.688 7.79688C127.688 7.41406 127.57 7.09375 127.336 6.83594C126.906 6.375 126.508 6.14453 126.141 6.14453C125.508 6.14453 124.734 6.1875 123.82 6.27344L122.391 8.80469C120.57 12.1094 119.328 15.0859 118.664 17.7344C118.398 18.7656 117.395 19.2812 115.652 19.2812C114.215 19.2812 113.297 18.9453 112.898 18.2734C112.766 18.0469 112.715 17.8281 112.746 17.6172C112.785 17.3984 112.891 17.1172 113.062 16.7734C113.234 16.4219 113.469 15.9844 113.766 15.4609L114.809 13.6797L116.086 11.582L117.527 9.32031L119.027 7.07031C116.301 7.65625 114.312 8.28906 113.062 8.96875C112.875 9.07031 112.68 9.12109 112.477 9.12109Z" fill="#A4DE84"/>
<path d="M151.09 10.3867C151.465 10.3867 151.652 10.5977 151.652 11.0195C151.652 11.3008 151.555 11.6562 151.359 12.0859C151.172 12.5078 150.898 12.9062 150.539 13.2812C150.18 13.6484 149.766 14.0312 149.297 14.4297C148.836 14.8281 148.293 15.2461 147.668 15.6836C147.051 16.1211 146.367 16.5547 145.617 16.9844C144.867 17.4141 144.07 17.8008 143.227 18.1445C141.359 18.9102 139.551 19.293 137.801 19.293C136.465 19.293 135.297 18.9453 134.297 18.25C133.25 17.5234 132.727 16.6406 132.727 15.6016C132.727 13.9688 133.605 12.418 135.363 10.9492C136.879 9.68359 138.664 8.70312 140.719 8.00781C141.969 7.58594 143.027 7.375 143.895 7.375C144.598 7.375 145.191 7.54688 145.676 7.89062C146.191 8.26562 146.449 8.76953 146.449 9.40234C146.449 10.3945 145.664 11.4922 144.094 12.6953C143.844 12.8906 143.617 13.0547 143.414 13.1875L142.992 13.4688C142.211 14.0156 141.023 14.6289 139.43 15.3086C139.922 15.5664 140.379 15.6953 140.801 15.6953C141.23 15.6953 141.613 15.6445 141.949 15.543C142.293 15.4414 142.68 15.2969 143.109 15.1094C143.539 14.9219 143.996 14.6992 144.48 14.4414C144.973 14.1758 145.469 13.8867 145.969 13.5742C147.086 12.8789 148.055 12.168 148.875 11.4414C149.305 11.043 149.852 10.7266 150.516 10.4922C150.734 10.4219 150.926 10.3867 151.09 10.3867ZM138.164 13.6797L138.809 13.3516C139.02 13.2422 139.207 13.1406 139.371 13.0469C140.949 12.1406 141.848 11.582 142.066 11.3711C142.285 11.1602 142.395 11.0156 142.395 10.9375C142.395 10.8516 142.371 10.7539 142.324 10.6445C142.277 10.5352 142.215 10.4375 142.137 10.3516C141.949 10.1328 141.75 10.0234 141.539 10.0234C141.328 10.0234 141.094 10.0625 140.836 10.1406C140.586 10.2188 140.332 10.3281 140.074 10.4688C139.816 10.6016 139.566 10.7656 139.324 10.9609C139.09 11.1484 138.883 11.3516 138.703 11.5703C138.289 12.0625 138.082 12.4883 138.082 12.8477C138.082 13.207 138.109 13.4844 138.164 13.6797Z" fill="#A4DE84"/>
<path d="M169.184 10.1992C169.434 10.1992 169.559 10.4102 169.559 10.832C169.559 11.5586 169.051 12.5 168.035 13.6562L167.367 14.3359C165.344 16.3594 163.438 17.707 161.648 18.3789C160.539 18.793 159.742 18.7734 159.258 18.3203C158.859 17.9375 158.543 17.3203 158.309 16.4688L158.027 15.4492L155.531 16.9844L154.09 17.8047C152.371 18.7422 151.082 19.2109 150.223 19.2109C149.121 19.2109 148.203 18.7852 147.469 17.9336C146.766 17.1289 146.414 16.1953 146.414 15.1328C146.414 14.0859 146.832 13.1523 147.668 12.332C148.863 11.1602 150.75 10.0859 153.328 9.10938C155.766 8.19531 157.734 7.73828 159.234 7.73828C159.742 7.73828 159.996 7.98828 159.996 8.48828C159.996 8.83203 159.93 9.08984 159.797 9.26172C159.664 9.43359 159.391 9.60938 158.977 9.78906L157.5 10.4219C155.312 11.3359 153.711 12.2852 152.695 13.2695C152.406 13.543 152.262 13.8086 152.262 14.0664C152.262 14.3242 152.469 14.4531 152.883 14.4531C153.289 14.4531 154.234 14.0156 155.719 13.1406L156.691 12.5664C158.199 11.6602 159.461 11.207 160.477 11.207C161.336 11.207 161.906 11.5859 162.188 12.3438C162.258 12.5469 162.324 12.7539 162.387 12.9648C162.449 13.168 162.512 13.3516 162.574 13.5156C162.715 13.8984 162.84 14.0898 162.949 14.0898C163.066 14.0898 163.23 14.0352 163.441 13.9258C163.652 13.8086 163.883 13.6641 164.133 13.4922C164.391 13.3125 164.656 13.1172 164.93 12.9062L166.348 11.7695C167.605 10.7227 168.551 10.1992 169.184 10.1992Z" fill="#A4DE84"/>
<path d="M186.738 10.3398C187.09 10.3398 187.266 10.5195 187.266 10.8789C187.266 11.4492 186.891 12.2539 186.141 13.293C185.617 14.0195 184.539 15.0273 182.906 16.3164C180.961 17.8398 179.398 18.6016 178.219 18.6016C177.328 18.6016 176.656 18.2266 176.203 17.4766C175.93 17.0234 175.707 16.3594 175.535 15.4844L174.492 16.2344C171.625 18.2188 169.484 19.2109 168.07 19.2109C166.891 19.2109 165.945 18.7812 165.234 17.9219C164.609 17.1484 164.297 16.2227 164.297 15.1445C164.297 13.957 164.703 13.0195 165.516 12.332C167.172 10.9414 169.23 9.79688 171.691 8.89844C172.691 8.53125 173.324 8.34766 173.59 8.34766C173.855 8.34766 174.098 8.39453 174.316 8.48828C174.543 8.57422 174.766 8.6875 174.984 8.82812C175.5 9.17969 175.758 9.51953 175.758 9.84766C175.758 10.1133 175.594 10.3281 175.266 10.4922C175.164 10.5469 174.992 10.6211 174.75 10.7148C174.508 10.8086 174.211 10.9375 173.859 11.1016C172.914 11.5469 171.992 12.0859 171.094 12.7188C170.453 13.2656 170.133 13.7031 170.133 14.0312C170.133 14.3516 170.359 14.5117 170.812 14.5117C171.188 14.5117 171.938 14.1797 173.062 13.5156C173.062 13.5156 173.395 13.3125 174.059 12.9062C174.77 12.4609 175.34 12.0547 175.77 11.6875C175.77 11.6875 175.949 11.1016 176.309 9.92969C176.973 7.83594 177.711 6.10547 178.523 4.73828C179.961 1.98047 181.406 0.601562 182.859 0.601562C183.391 0.601562 183.812 0.699219 184.125 0.894531C184.688 1.24609 184.969 1.63672 184.969 2.06641C184.969 2.48828 184.891 2.9375 184.734 3.41406C184.578 3.89062 184.371 4.36328 184.113 4.83203C183.863 5.30078 183.574 5.76562 183.246 6.22656L181.242 8.875C180.906 9.30469 180.609 9.72266 180.352 10.1289C179.898 11.1055 179.672 11.9414 179.672 12.6367C179.672 13.6367 180.035 14.1367 180.762 14.1367C181.176 14.1367 181.922 13.7031 183 12.8359L184.383 11.6641C185.031 11.0859 185.672 10.6797 186.305 10.4453C186.484 10.375 186.629 10.3398 186.738 10.3398Z" fill="#A4DE84"/>
<path d="M206.93 12.5781C206.93 13.7266 207.289 14.3008 208.008 14.3008C208.508 14.3008 209.371 13.8633 210.598 12.9883C211.707 12.168 212.367 11.6523 212.578 11.4414C213.062 11.0352 213.57 10.832 214.102 10.832C214.328 10.832 214.52 10.9102 214.676 11.0664C214.84 11.2148 214.922 11.4414 214.922 11.7461C214.922 12.0508 214.848 12.3281 214.699 12.5781C214.551 12.8281 214.359 13.0859 214.125 13.3516C213.898 13.6172 213.613 13.9141 213.27 14.2422C212.934 14.5703 212.547 14.918 212.109 15.2852C211.672 15.6445 211.191 16.0039 210.668 16.3633C210.152 16.7227 209.617 17.0469 209.062 17.3359C207.812 17.9766 206.684 18.2969 205.676 18.2969C204.52 18.2969 203.734 17.7734 203.32 16.7266C203.078 16.125 202.957 15.4023 202.957 14.5586L199.547 16.8672C197.211 18.5078 195.82 19.3789 195.375 19.4805C195.148 19.5352 194.918 19.5625 194.684 19.5625C194.457 19.5625 194.242 19.5391 194.039 19.4922C193.836 19.4531 193.656 19.3828 193.5 19.2812C193.141 19.0703 192.961 18.7578 192.961 18.3438C192.961 18.1797 193.07 17.7812 193.289 17.1484L194.297 14.3828C194.609 13.4922 194.766 12.957 194.766 12.7773C194.766 12.7148 194.727 12.6836 194.648 12.6836C194.57 12.6836 194.426 12.7656 194.215 12.9297C194.004 13.0938 193.75 13.3047 193.453 13.5625L190.664 16L189.199 17.2188C187.699 18.4141 186.477 19.0117 185.531 19.0117C185.086 19.0117 184.637 18.8125 184.184 18.4141C183.691 17.9922 183.445 17.4844 183.445 16.8906C183.445 16.2969 183.504 15.6484 183.621 14.9453C183.73 14.2422 183.891 13.5664 184.102 12.918C184.312 12.2617 184.574 11.6484 184.887 11.0781C185.199 10.5 185.555 10 185.953 9.57812C186.812 8.65625 187.824 8.19531 188.988 8.19531C190.16 8.19531 190.746 8.53906 190.746 9.22656C190.746 9.52344 190.586 9.97656 190.266 10.5859C189.586 11.9297 189.246 12.6562 189.246 12.7656C189.246 12.8672 189.277 12.9492 189.34 13.0117C189.41 13.0664 189.484 13.0938 189.562 13.0938C189.727 13.0938 189.961 12.9609 190.266 12.6953C192.273 10.9375 193.535 9.84766 194.051 9.42578C194.574 9.00391 195.078 8.63281 195.562 8.3125C196.672 7.58594 197.555 7.22266 198.211 7.22266C198.75 7.22266 199.188 7.30859 199.523 7.48047C200.109 7.78516 200.402 8.12891 200.402 8.51172C200.402 8.89453 200.348 9.32812 200.238 9.8125C200.137 10.2969 200.023 10.7656 199.898 11.2188L199.547 12.4141C199.438 12.7578 199.383 13.0234 199.383 13.2109C199.383 13.3906 199.461 13.4805 199.617 13.4805C199.992 13.4805 200.738 12.9492 201.855 11.8867L202.992 10.8203C204.297 9.64844 205.285 9.0625 205.957 9.0625C206.277 9.0625 206.562 9.1875 206.812 9.4375C207.25 9.875 207.469 10.2578 207.469 10.5859C207.469 10.7656 207.406 11.0078 207.281 11.3125C207.047 11.8828 206.93 12.3047 206.93 12.5781Z" fill="#A4DE84"/>
<path d="M228.785 10.3867C229.16 10.3867 229.348 10.5977 229.348 11.0195C229.348 11.3008 229.25 11.6562 229.055 12.0859C228.867 12.5078 228.594 12.9062 228.234 13.2812C227.875 13.6484 227.461 14.0312 226.992 14.4297C226.531 14.8281 225.988 15.2461 225.363 15.6836C224.746 16.1211 224.062 16.5547 223.312 16.9844C222.562 17.4141 221.766 17.8008 220.922 18.1445C219.055 18.9102 217.246 19.293 215.496 19.293C214.16 19.293 212.992 18.9453 211.992 18.25C210.945 17.5234 210.422 16.6406 210.422 15.6016C210.422 13.9688 211.301 12.418 213.059 10.9492C214.574 9.68359 216.359 8.70312 218.414 8.00781C219.664 7.58594 220.723 7.375 221.59 7.375C222.293 7.375 222.887 7.54688 223.371 7.89062C223.887 8.26562 224.145 8.76953 224.145 9.40234C224.145 10.3945 223.359 11.4922 221.789 12.6953C221.539 12.8906 221.312 13.0547 221.109 13.1875L220.688 13.4688C219.906 14.0156 218.719 14.6289 217.125 15.3086C217.617 15.5664 218.074 15.6953 218.496 15.6953C218.926 15.6953 219.309 15.6445 219.645 15.543C219.988 15.4414 220.375 15.2969 220.805 15.1094C221.234 14.9219 221.691 14.6992 222.176 14.4414C222.668 14.1758 223.164 13.8867 223.664 13.5742C224.781 12.8789 225.75 12.168 226.57 11.4414C227 11.043 227.547 10.7266 228.211 10.4922C228.43 10.4219 228.621 10.3867 228.785 10.3867ZM215.859 13.6797L216.504 13.3516C216.715 13.2422 216.902 13.1406 217.066 13.0469C218.645 12.1406 219.543 11.582 219.762 11.3711C219.98 11.1602 220.09 11.0156 220.09 10.9375C220.09 10.8516 220.066 10.7539 220.02 10.6445C219.973 10.5352 219.91 10.4375 219.832 10.3516C219.645 10.1328 219.445 10.0234 219.234 10.0234C219.023 10.0234 218.789 10.0625 218.531 10.1406C218.281 10.2188 218.027 10.3281 217.77 10.4688C217.512 10.6016 217.262 10.7656 217.02 10.9609C216.785 11.1484 216.578 11.3516 216.398 11.5703C215.984 12.0625 215.777 12.4883 215.777 12.8477C215.777 13.207 215.805 13.4844 215.859 13.6797Z" fill="#A4DE84"/>
</svg>
